<svg id="Layer_1" data-name="Layer 1" xmlns="http://www.w3.org/2000/svg" viewBox="0 0 200 200"><defs><style>.cls-1{font-size:29.73px;font-family:Roboto-Medium, Roboto;font-weight:500;}.cls-2{font-size:14.57px;font-family:Roboto-Regular, Roboto;}.cls-3,.cls-4,.cls-6{fill:none;}.cls-4,.cls-5,.cls-6{stroke:#000;stroke-miterlimit:10;}.cls-4,.cls-5{stroke-width:1.91px;}.cls-6{stroke-width:1.21px;}</style></defs><text class="cls-1" transform="translate(2.32 144.26) scale(0.99 1)">United Science <tspan x="0" y="29.14">Foundation</tspan></text><text class="cls-2" transform="translate(3.22 193.68)">A step forward</text><path class="cls-3" d="M34.4,81.12h8.86l.07-.48-8.72-3.73C34.54,78.44,34.46,79.87,34.4,81.12Z"/><path class="cls-3" d="M34.55,74.92l-.33.55c1.46,1.19,3.33,1.53,5.17,1.94Z"/><path class="cls-3" d="M65.16,36.58V35l-.89.16C64.58,35.62,64.85,36.06,65.16,36.58Z"/><path class="cls-3" d="M46.12,72.39l-2.3-2.86C43.07,72.11,43.49,72.6,46.12,72.39Z"/><path class="cls-3" d="M61.32,37.46a1.56,1.56,0,0,0-.38,1c.26,1.21.61,2.4,1,3.58a4.08,4.08,0,0,0,.63.9c.32-.26.74-.46.92-.79,1.28-2.37,1.06-3.82-.87-6.08A14.74,14.74,0,0,0,61.32,37.46Z"/><path class="cls-3" d="M46.8,75.62l1.62-.6c-1.21-1.57-2-2-5-2.36,0,1.29-.09,2.56,0,3.82s3,3.58,4.33,3.32c1.72-.35,3.39-.89,5.09-1.35C50.9,77.2,49.56,74.87,46.8,75.62Z"/><path class="cls-3" d="M47.73,59.28c.44,1.24.78,2.18,1.12,3.13C49.09,61.25,49.82,59.93,47.73,59.28Z"/><path class="cls-3" d="M31.94,75.17A22.05,22.05,0,0,1,29.21,73c-.51-.4-1-.77-1.55-1.15,0,3.19.71,6.15-.56,9.19,1.17.15,2.21.37,3.27.41,3.3.13,3.33,0,3.27-3.32A3.05,3.05,0,0,0,31.94,75.17Zm-.26,5.13a3.46,3.46,0,0,1-2.32-4.08c2,.56,2.75,1.51,2.75,3.15L30.8,77.2l-.29.15C30.88,78.29,31.25,79.23,31.68,80.3Z"/><path class="cls-3" d="M47.21,62.48,49,68.58l.47-.13c-.56-2-1.13-4.08-1.69-6.12Z"/><path class="cls-3" d="M42.68,43.66l5.52,3.41c.1-.14.19-.28.29-.41L43,43.21C42.86,43.36,42.77,43.51,42.68,43.66Z"/><path class="cls-3" d="M42.56,44.79,40,43C39.92,44.6,40.7,45.11,42.56,44.79Z"/><path class="cls-3" d="M62.92,29.55a17.38,17.38,0,0,1,.29,3.32l.4,0,.88-1.25.19.08c-.23.5-.47,1-.69,1.49-.41.93,0,1.39.9,1.43h.27V29a4,4,0,0,1-.23-3.46l.23.14V22.16c-.48.94-1,1.88-1.49,2.79A5.69,5.69,0,0,0,62.92,29.55Z"/><path class="cls-3" d="M29.21,71.37l4.07,1.57C31.68,70.85,30.56,69.92,29.21,71.37Z"/><path d="M64.27,35.12l.89-.16v-.3h-.27c-.92,0-1.31-.5-.9-1.43.22-.5.46-1,.69-1.49l-.19-.08-.88,1.25-.4,0a17.38,17.38,0,0,0-.29-3.32,5.69,5.69,0,0,1,.75-4.6c.53-.91,1-1.85,1.49-2.79v-1l-3.1,5.34c-.8-2.66-1.48-4.94-2.16-7.22l-.39.12q1.22,4.89,2.45,9.79A5.44,5.44,0,0,1,60.7,27.7c-1-1.46-2-3-3.12-4.31-.57-.66-.73-1.07-.31-1.83.57-1,1-2.14,1.5-3.22l-.35-.15L56.53,22l-.4.11C55,19.73,53.88,17.36,52.75,15c.94,3.49,2.11,6.83,4.62,9.54C60,27.42,61.11,31.1,62.16,34.8l-1.3-1.58a2.82,2.82,0,0,0,.61,1.25c.88,1.21.77,1.58-.77,2.74-1,.76-1.57.08-2.07-.64-.68-1-1.3-2-1.94-3,.06,1.45,1.8,2.45.72,4.11,2.48-.77,3.2,1.29,3.39,5.93-1.23-.75-2.39-1.4-3.46-2.17a1.5,1.5,0,0,1-.49-1.16c.25-3-1.53-5.23-2.53-7.78.27,2.81,2.44,5.26,1.58,8.35l-2.29-.47c0,.11-.1.22-.16.33a9.25,9.25,0,0,0,1.48.87c2.92,1.15,5.66,2.44,5.53,6.28a1.51,1.51,0,0,0,.12.38c1,3,0,5.92-.43,8.85,0,.33-.44.62-.67.93-.33-.26-.8-.44-1-.77-.7-1.44-1.31-2.92-2-4.38-1.19-2.63-2.23-5.35-3.66-7.85S49.58,40.41,48,38a9.2,9.2,0,0,1-1.11-2.92c-.32-1.36-.47-2.76-.69-4.14L46,31v4.79c-2.07-.71-2.09-2.7-3-4.06l.56,2.4L38.33,29.3l-.19.2,5.21,6-2.49.15c.7.19,1.41.08,2.07.22a4.63,4.63,0,0,1,2.27.87c3.17,3.28,5.15,7.37,7.44,11.25a.88.88,0,0,1,0,.37c-.12,0-.22.07-.27,0q-.69-.42-1.35-.87C47.78,45.18,44.5,43,40.52,42c-1.08-.25-1.42-1-.88-2a7.29,7.29,0,0,0,.41-1.22l-.19-.09c-.28.44-.57.88-1,1.61-.5-1.51-.9-2.69-1.3-3.88l-.19.06,1.12,4.38L25.08,33.26l-.21.33,11,6.81-.15.27-2.36-.48a41.28,41.28,0,0,0,4.28,1.55c1.64.54,1.82.9,1.33,2.63H30.8c2.16.38,4.33.5,6.48.81,3.48.51,7,.8,10,3a36.24,36.24,0,0,0,4.24,2.22c.81.43,2,.75,2.3,1.44a35.61,35.61,0,0,1,1.76,5.08c-2.19-.7-3.92-1.63-4.88-3.62.15.58.31,1.16.46,1.74l-.3.27-4.6-3.71c2,3.07,5,4.57,8.12,5.78a3.64,3.64,0,0,1,2.74,3.51,3.47,3.47,0,0,0,.41,1.54,15.52,15.52,0,0,1,1.72,7.88,17.11,17.11,0,0,0,.23,2.13q.29,2.7.57,5.44H57.75c-.5-3.25-.56-6.6-3.07-9.31.68,1.7,1.28,3.23,1.89,4.77l-.39.16-1.51-.88c1.81,2.17,2.25,3.23,2.08,5.31-.09,0-.2.06-.26,0-2.63-1.46-5.41-2.81-4.8-6.63a1.21,1.21,0,0,0-.06-.53,41.8,41.8,0,0,1-2-10.75c0-.43-.64-1-1.11-1.17a1.57,1.57,0,0,1-1.23-1.66c0-1.14,0-2.29,0-3.44l-.18,0L46.52,55c-.7-1.59-1.3-3-1.89-4.33l-.21.06c.48,2,.95,4.07,1.45,6.19l-3.52-1.86-.12.21,3.32,2.4-1.75.43a1.1,1.1,0,0,0,.75.23c2.06-.09,2,.08,2.25,2.11a83.21,83.21,0,0,0,1.46,8.27c.31,1.45.9,2.85,1.43,4.51-.4-.19-.6-.21-.69-.32-2.89-3.34-5.83-6.63-8.59-10.07-.48-.6-.23-1.83-.19-2.77a9.77,9.77,0,0,1,.42-1.88l-.21,0c-.24.77-.49,1.55-.78,2.5l-4.22-6.57-.25.14,3.13,6.19-2.11-1.2c1,1.32,3,1.83,3,3.89l-4.23-1A20.72,20.72,0,0,0,38.63,64c2.08.82,2.86,2.86,4.2,4.37.09.1.05.34,0,.52-.22,2.51-.44,5-.68,7.69-2.63-1.34-5.7-2.09-7.83-4.48-2.62-2.93-5.17-5.92-7.73-8.9-.78-.91-1.5-1.87-2.25-2.82l-.3.24,6,8.8c-1.83,1.67-2,1.68-3.8.22-.66-.53-1.31-1.07-2-1.6l-2-1.63-.31.36c.72.63,1.43,1.27,2.14,1.91l-.12.21L9.41,62.05c-.07.15-.14.29-.2.44l16.85,8.76-5.59,1.83.06.23,4.86-1.23c.05.12.1.25.14.38-.29.59-.59,1.17-.88,1.76l.23.11,1.44-1.63c.46,2.88.84,5.54.24,8.25-2.88,0-2.74-3.22-4.8-4.26l2,3.19-10.56-1.5,0,.24,9,2.23a4.23,4.23,0,0,1-1.42.67c-.44.15-.88.33-1.32.5,2.15,0,4.3-1.38,6.29.27l-4.62,3.28.09.21,4.93-2.1c.16,2.88.32,5.66.47,8.44a2.12,2.12,0,0,0,.24-1.05c0-2.28-.07-4.55,0-6.83,0-.43.46-1.21.75-1.23,1.75-.11,3.51-.06,5.49-.06-2.08,7.28-1.15,14.31-1.19,21.3,1.44-7-.28-14.19,2-21,1.12,0,2.1-.06,3.07,0a1.21,1.21,0,0,1,.86.73c.23,1.9.78,3.9.43,5.71-.65,3.31-.36,6.57-.24,9.86,0,.31.08.62.12.93a38.91,38.91,0,0,0,.25-4.42c.07-1.73.2-3.46.36-5.18.14-1.4.47-2.79.51-4.19a23.63,23.63,0,0,0-.37-3.45c1.42,0,2.72,0,4,0,.81,0,1.14.22,1.16,1,.07,2.1.17,4.19.25,6.29q.19,5.27.37,10.53H45v-18l4.33-.9c.21,1.74.33,3.42.61,5.07.4,2.42,1.05,4.8,1.33,7.22a56.83,56.83,0,0,1,0,6.16c.21-.59.31-.87.4-1.16,1-3,.42-6-.33-9a21.22,21.22,0,0,1-1-5.1c0-4-.37-4,3.93-4.44,1-.11,1.52.2,1.52,1.16,0,1.87-.1,3.73-.11,5.6,0,3,0,6,0,9l.4,0c-.22-4.6-.26-9.18,1.27-13.7a5.38,5.38,0,0,1,1.06,1.49c.63,2.27,1.56,4.56,1.6,6.86a71.48,71.48,0,0,1-1,9.41,3.11,3.11,0,0,1-2.18,2.66,31.9,31.9,0,0,1-3.1.77c-2.55.61-5.09,1.28-7.65,1.83-2.12.45-4.26.83-6.4,1.15s-4.6.55-6.89.82l0,.33H65.16V36.58C64.85,36.06,64.58,35.62,64.27,35.12ZM40,43l2.55,1.8C40.7,45.11,39.92,44.6,40,43Zm8.19,4.08-5.52-3.41c.09-.15.18-.3.28-.45l5.53,3.45C48.39,46.79,48.3,46.93,48.2,47.07Zm.65,15.34c-.34-.95-.68-1.89-1.12-3.13C49.82,59.93,49.09,61.25,48.85,62.41ZM49,68.58l-1.77-6.1.55-.15c.56,2,1.13,4.08,1.69,6.12Zm-15.7,4.36-4.07-1.57C30.56,69.92,31.68,70.85,33.28,72.94Zm-2.91,8.55c-1.06,0-2.1-.26-3.27-.41,1.27-3,.58-6,.56-9.19.51.38,1,.75,1.55,1.15a22.05,22.05,0,0,0,2.73,2.13,3.05,3.05,0,0,1,1.7,3C33.7,81.49,33.67,81.62,30.37,81.49Zm13.45-12,2.3,2.86C43.49,72.6,43.07,72.11,43.82,69.53Zm-9.27,5.39,4.84,2.49c-1.84-.41-3.71-.75-5.17-1.94Zm8.71,6.2H34.4c.06-1.25.14-2.68.21-4.21l8.72,3.73Zm4.48-1.32c-1.33.26-4.21-2-4.33-3.32s0-2.53,0-3.82c3,.41,3.82.79,5,2.36l-1.62.6c2.76-.75,4.1,1.58,6,2.83C51.13,78.91,49.46,79.45,47.74,79.8ZM63.47,42.19c-.18.33-.6.53-.92.79a4.08,4.08,0,0,1-.63-.9c-.37-1.18-.72-2.37-1-3.58a1.56,1.56,0,0,1,.38-1,14.74,14.74,0,0,1,1.28-1.35C64.53,38.37,64.75,39.82,63.47,42.19Z"/><path d="M17.49,61.75a7,7,0,0,1,.16,1.12c.41-1.75-.21-2.89-1.88-3.72a3.55,3.55,0,0,0,1.34,4.5c-.16-1.11-.28-2-.41-3l.25-.08A10.16,10.16,0,0,1,17.49,61.75Z"/><path d="M57,26.74c-1.71.45-2.6,1.55-2.52,3,.33-.56.68-1.18,1-1.79l.24.12c-.25.94-.51,1.87-.82,3C56.78,29.87,57.23,28.82,57,26.74Z"/><path d="M24.48,31c-.5-1-.93-1.82-1.35-2.66.15-.14.31-.27.47-.4L24.16,29c.2.37.42.72.72,1.24-.37-1.95-1.19-2.7-3.18-3.06A3.5,3.5,0,0,0,24.48,31Z"/><path d="M51.73,28.34c.42.67.84,1.34,1.29,2A3.15,3.15,0,0,0,51.73,28.34Z"/><path d="M51.57,28.09l-.11.1.27.15C51.67,28.26,51.62,28.17,51.57,28.09Z"/><path d="M52.92,31.43,51,28.63c.16-.14.31-.29.46-.44a4.07,4.07,0,0,0-2-.35A4.23,4.23,0,0,0,52.92,31.43Z"/><path d="M48,24.64c-1.83.65-2.61,1.73-2.48,3.28.33-.62.72-1.34,1.12-2.07l.25.14c-.26.9-.53,1.81-.9,3.07C47.94,27.65,48.46,26.32,48,24.64Z"/><path d="M44.7,21.92c.24-.58.54-1.33.84-2.07l.32.13a13.41,13.41,0,0,0-.34,1.39c-.08.5-.08,1-.12,1.65,1.55-1.28,1.89-2.58,1.27-4.59C44.87,19.55,44.37,20.55,44.7,21.92Z"/><path d="M42.31,22.84c-.62-1.56-1.64-2.19-3.63-2.15a4.22,4.22,0,0,0,3.64,3.45c-.84-1.08-1.47-1.88-2.09-2.69l.17-.2Z"/><path d="M7.15,70.47,4.59,68.93l.08-.25,2.14.64c-1.06-1.13-2.25-1.3-4-.54A3.68,3.68,0,0,0,7.15,70.47Z"/><path d="M12.11,54.39a3.07,3.07,0,0,0-4.17-.88c1,1.65,2.24,2.22,4.4,1.92l-2.7-1.72.1-.34Z"/><path d="M63.73,20.38l-.86-3,.28-.12,1.19,2.25c.09-1.86-1-2.78-2.56-3.54A3.61,3.61,0,0,0,63.73,20.38Z"/><path d="M28.1,24.81l-3-.35v-.35L27.43,24c-1.28-.75-2.39-.54-4,.92C25.22,26.07,26.84,26.07,28.1,24.81Z"/><path d="M51.2,40.39a3.63,3.63,0,0,0,1.88-4.31c-2,.85-2.58,1.76-2.53,3.37l1.22-2.2.33.18a13.55,13.55,0,0,0-.54,1.32C51.41,39.25,51.33,39.76,51.2,40.39Z"/><path d="M10.81,69.81a3.7,3.7,0,0,0,4-2.34l-2.93,1.12-.15-.28L13.86,67A2.94,2.94,0,0,0,10.81,69.81Z"/><path d="M44.22,27.79c-.38-1.32-1.44-2.1-3.28-2a3.27,3.27,0,0,0,3.13,3.31l-1.78-2.51.34-.34Z"/><path d="M58.05,66.37c-.37-1.66-1.54-2.52-3.46-2.44a3.62,3.62,0,0,0,3.25,3.4L56,64.73l.28-.22Z"/><path d="M32.93,42.39c-.7-2.06-1.86-2.85-3.56-2.66.22,1.79,1,2.77,3.12,3.21l-1.73-2.47a2.16,2.16,0,0,1,1.17.61A12.85,12.85,0,0,1,32.93,42.39Z"/><path d="M16,41.51a3.65,3.65,0,0,0,4.72,0l-3.13-.47c0-.1,0-.2,0-.3h2.56A3,3,0,0,0,16,41.51Z"/><path d="M36.1,36.54a3,3,0,0,0-3.32-2.22c.15,1.85,1.07,2.92,3.26,3.48l-1.95-2.75.21-.19Z"/><path d="M27.64,41.05A3.77,3.77,0,0,0,23.56,41a3.44,3.44,0,0,0,4.57,1.23L25.29,41l.05-.22Z"/><path d="M18,36.86l-2.85-1.44c0-.11,0-.23.05-.35l2.5.79a3.08,3.08,0,0,0-4.21-.53C14.55,36.88,15.82,37.37,18,36.86Z"/><path d="M9.92,73.44a3.13,3.13,0,0,0,3.73,2.62L11.37,74l.17-.24,2.15,1.49C13,73.7,11.94,73.2,9.92,73.44Z"/><path d="M44.8,16.51l-2.17-2.05.2-.26,2,1.36c-.74-1.49-1.82-2-3.77-1.64A3.22,3.22,0,0,0,44.8,16.51Z"/><path d="M60.12,49.35c-1.83.74-2.52,1.65-2.45,3.12l1.2-2,.22.14-1,3.16C60,52.55,60.57,51.22,60.12,49.35Z"/><path d="M51.77,17.23l-2.46-1.68.06-.19a7.57,7.57,0,0,1,1.16.29,13.91,13.91,0,0,1,1.35.77c-1.42-1.57-2.65-1.84-4.26-1.16C48.55,17,50,17.76,51.77,17.23Z"/><path d="M42.62,19.17l-2.84-1.85a2.69,2.69,0,0,1,.16-.29l2.25,1c-.93-1.29-2.12-1.59-3.95-.94C39.1,18.73,40.34,19.41,42.62,19.17Z"/><path d="M32.36,23.63l-2.54-2.16.13-.24,2.34,1.3a3.17,3.17,0,0,0-4-1.46C29,22.86,30.15,23.66,32.36,23.63Z"/><path d="M15.05,47.64c2,.9,3.67.6,4.57-.69H16.67a2.5,2.5,0,0,1-.07-.26L19.13,46A3.92,3.92,0,0,0,15.05,47.64Z"/><path d="M10.28,81.46l-.08-.34,2.44-.77a3,3,0,0,0-3.68,2A3.65,3.65,0,0,0,13.44,81Z"/><path d="M34.16,17.72l.25.1c-.1,1-.21,2-.33,3.12,1.55-1.23,1.85-2.54,1.22-4.55a3,3,0,0,0-1.92,3.54C33.61,19.27,33.88,18.5,34.16,17.72Z"/><path d="M55.35,18l1.15-2,.23.13c-.29,1-.59,1.9-.94,3,1.89-1.1,2.47-2.52,2-4.32C55.94,15.57,55.25,16.51,55.35,18Z"/><path d="M28.81,28.13A2,2,0,0,1,30,28a14.12,14.12,0,0,1,1.44.51c-1.61-1.24-2.83-1.3-4.27-.43,1.1,1.53,2.45,2,4.6,1.42Z"/><path d="M6.92,73.41,4.09,74.52l-.16-.3,2.21-1.3A3,3,0,0,0,3,75.71,3.47,3.47,0,0,0,6.92,73.41Z"/><path d="M32.44,25.44l.16-.26,2.29,1.29A3.66,3.66,0,0,0,30.8,24.9c.65,1.83,1.87,2.67,4.08,2.67Z"/><path d="M30.91,33.87c-.44-1.82-1.33-2.49-3.38-2.7-.06,1.71.87,2.88,3,3.3L28.78,32a2.56,2.56,0,0,1,1.24.66A9.78,9.78,0,0,1,30.91,33.87Z"/><path d="M36,70.47c2-.48,3.09-1.59,3.16-3.47l-2.43,2-.24-.15,1.33-1.77C36.47,67.58,35.88,68.66,36,70.47Z"/><path d="M54.9,11.74l.34.16c-.19.48-.42.94-.56,1.43A13.31,13.31,0,0,0,54.39,15c1.83-1.4,2.34-2.81,1.76-4.34-1.85.73-2.58,1.82-2.37,3.23Z"/><path d="M34,68.43a3.75,3.75,0,0,0,.66-4.68c-.35,1.14-.64,2.1-.93,3.06l-.34,0c.11-.88.23-1.76.35-2.67C32.66,65.76,32.76,67.25,34,68.43Z"/><path d="M24.27,63.94a2.92,2.92,0,0,0-3.81-1.42,4.27,4.27,0,0,0,4,2.77c-.5-.57-.82-1-1.19-1.34s-.73-.61-1.1-.92l.23-.29Z"/><path d="M53.83,59.78c-2,1-2.65,1.83-2.49,3.19l1.13-1.9.21.15c-.28.94-.57,1.87-.85,2.8A3.61,3.61,0,0,0,53.83,59.78Z"/><path d="M51.8,13.27,50,11l.2-.21,1.7,1.4a2.91,2.91,0,0,0-3.49-1.93A3.6,3.6,0,0,0,51.8,13.27Z"/><path d="M13.37,60.53A3,3,0,0,0,10,58a4.37,4.37,0,0,0,3.18,3.82l-1.73-3,.2-.17Z"/><path d="M21.76,97.92c.52-.64,1-1.28,1.5-1.83-1.52.51-2.21,1.66-2,3.48a3.44,3.44,0,0,0,3.12-3.44l-2.41,2Z"/><path d="M52.94,19.8a3,3,0,0,0-3.89-.69A3.68,3.68,0,0,0,53.24,21c-.84-.57-1.67-1.15-2.5-1.73l.09-.22Z"/><path d="M15.69,71.67a4.55,4.55,0,0,0,5-.83H17.35c0-.09-.05-.17-.07-.25l2.4-.66A3.61,3.61,0,0,0,15.69,71.67Z"/><path d="M14.14,83.16c.29-.26.56-.55.87-.78a12.77,12.77,0,0,1,1.25-.72c-2,.35-2.82,1.25-3,2.88a3.75,3.75,0,0,0,4.08-2.49l-3,1.31Z"/><path d="M26.53,47.34a4.35,4.35,0,0,0,4.77-1.09L28,46.4,28,46.11l2.31-.58A3,3,0,0,0,26.53,47.34Z"/><path d="M38.19,56.23c.33-.63.73-1.41,1.14-2.18l.24.11c-.26,1-.51,1.93-.77,2.89a3.66,3.66,0,0,0,2-4.2C38.73,53.69,38.09,54.63,38.19,56.23Z"/><path d="M57.44,44.33l-.06.05.16.09Z"/><path d="M57.54,44.47l1.3,1.73A2.47,2.47,0,0,0,57.54,44.47Z"/><path d="M55.54,44a3.41,3.41,0,0,0,3.22,3.41L56.9,44.86l.48-.48A4.81,4.81,0,0,0,55.54,44Z"/><path d="M24,43.94a3.18,3.18,0,0,0-4.14.5,3.63,3.63,0,0,0,4.59.46l-2.9-.79.06-.31Z"/><path d="M31.28,63.68,28.92,62l.09-.22,2.09.76a3,3,0,0,0-3.85-.72A3.49,3.49,0,0,0,31.28,63.68Z"/><path d="M49.85,31.42a3.63,3.63,0,0,0-1.46,3.8L49,33l.32.06v3.32C50.71,34.44,50.81,32.93,49.85,31.42Z"/><path d="M5.91,66.7c1.94.89,3.64.6,4.64-.82l-3,.13-.06-.29,2.46-.65C8.14,64.65,7,65.42,5.91,66.7Z"/><path d="M15.33,44.17l-3.17-.45c0-.1,0-.2,0-.29h2.67a3.09,3.09,0,0,0-4.26.7A3.66,3.66,0,0,0,15.33,44.17Z"/><path d="M42.2,50.22a14,14,0,0,1,.95,1.21c-.59-1.93-1.89-2.79-3.56-2.53.5,2.08,1.3,3,3.31,3.37l-1.83-2.6.12-.19A8.18,8.18,0,0,1,42.2,50.22Z"/><path d="M33,50.87c-1.11-1.5-2.52-1.45-4.08-1.27A3.6,3.6,0,0,0,33.09,52l-2.48-1.91.12-.25Z"/><path d="M60.06,10.06c-.25,1-.5,2-.8,3.17C61,12,61.46,10.78,61,8.6c-1.43.85-2.45,1.78-2.38,3.6l1.19-2.27Z"/><path d="M28.72,57.25l-3,.22c0-.1-.05-.2-.08-.29l2.27-.66c-1.5-.42-2.66.1-3.68,1.69A3.31,3.31,0,0,0,28.72,57.25Z"/><path d="M34.6,31l-.07-.33,2.38-.18a3.25,3.25,0,0,0-4,1c1.66,1.17,3.38,1.17,4.57-.11Z"/><path d="M11,47.17,7.83,48.25,7.7,48,10,46.69c-1.82.11-2.67.8-3.31,2.65C8.58,49.65,9.74,49.15,11,47.17Z"/><path d="M19.21,34.88C21,36,22.54,35.94,23.89,34.7l-3.12-.33a2.54,2.54,0,0,0,0-.29L23,33.76A3,3,0,0,0,19.21,34.88Z"/><path d="M54.38,23.73c-1.27-.82-2.43-.4-3.63.33a4,4,0,0,0,4.88.79l-3-.94a1.1,1.1,0,0,1,0-.18Z"/><path d="M30.84,55.42l1.91.09c-1.16-.83-2.35-.74-3.73.29a3.65,3.65,0,0,0,4.66.91l-2.86-1C30.83,55.61,30.83,55.51,30.84,55.42Z"/><path d="M34.14,59.25a4,4,0,0,0-4.41.13,3.77,3.77,0,0,0,4.65.91l-2.87-1,0-.25Z"/><path d="M37.25,47.68a3.58,3.58,0,0,0-1.46,3.9c.19-.83.37-1.58.54-2.33h.42v3.22A3.85,3.85,0,0,0,37.25,47.68Z"/><path d="M7.28,77.43v-.29L9.07,77c0-.16-.07-.32-.1-.48l-3.72.86c1.8,1.62,3.25,1.81,5.11.79Z"/><path d="M20.76,31.25l-3.12.57c-.05-.13-.1-.26-.16-.39l2.21-.93a3.53,3.53,0,0,0-3.24,1.87A3.34,3.34,0,0,0,20.76,31.25Z"/><path d="M6.94,61.9l-3.1-.64c0-.12,0-.24,0-.36l2.38-.18c0-.09,0-.18-.07-.27l-3.75.68C4,62.64,5.33,62.85,6.94,61.9Z"/><path d="M63.93,11.71l.32,0c.11.61.22,1.23.32,1.85l.25-.07c-.27-1-.55-2.07-.88-3.33-1.3,1.65-1.46,3.1-.6,4.68C63.56,13.67,63.75,12.69,63.93,11.71Z"/><path d="M9.1,57.87,5.88,56.7l1.6-.37a1.33,1.33,0,0,0-.05-.19l-2.56.59A3.44,3.44,0,0,0,9.1,57.87Z"/><path d="M44.54,61.33l-2.33-.83c.3,1.94,1.2,3,3,3.31l-2.11-2.67,1.41.38Z"/><path d="M43.63,37.27l-1.48,1,.88,0c-.37,1-.71,2-1.13,3.23C43.7,40.15,44.17,39,43.63,37.27Z"/><path d="M15,39.59l-2.89-.7V38.6L14,38.32l-.06-.24-3.21.72A3.52,3.52,0,0,0,15,39.59Z"/><path d="M38.73,27l-2-2.69h.81l0-.2-1.73-.36A3.37,3.37,0,0,0,38.73,27Z"/><path d="M18.62,52.53l-2.88,1.22-.22-.64-.73,1.47C16.6,54.68,17.89,54.17,18.62,52.53Z"/><path d="M23.86,37.57c1.49,1.37,2.85,1.66,4.4,1C26.92,38.17,25.68,37.29,23.86,37.57Z"/><path d="M21.76,59.4l-2.33-2.62.28-.27-1.28-.19C18.76,58.12,19.65,59,21.76,59.4Z"/><path d="M11.26,50.5l.06.49a3.35,3.35,0,0,0,4-.92Z"/><path d="M15.8,74.72a3.28,3.28,0,0,0,3.06,2.8c-.88-1.07-1.76-2.13-2.63-3.2Z"/><path d="M24.87,48.34l-4,1.09.12.37C22.93,50.21,24.15,49.8,24.87,48.34Z"/><path d="M27.7,53.4c-1.47-.76-3.75-1-4.17-.49A4.18,4.18,0,0,0,27.7,53.4Z"/><path d="M32.11,79.37c0-1.64-.79-2.59-2.75-3.15a3.46,3.46,0,0,0,2.32,4.08c-.43-1.07-.8-2-1.17-3l.29-.15Z"/><polyline class="cls-4" points="96.92 107.42 71.2 107.42 71.2 80.66 115.8 80.66"/><polyline class="cls-4" points="71.2 80.66 71.2 73.84 74.15 70.88 118.86 70.88"/><line class="cls-5" x1="103.34" y1="80.83" x2="97.03" y2="86.59"/><polyline class="cls-4" points="67.78 108.38 67.78 36.59 76.59 27.78 88.54 27.78 97.17 19.15"/><polyline class="cls-4" points="67.77 64.09 72.24 59.62 124.43 59.62"/><line class="cls-4" x1="104.46" y1="59.55" x2="116.93" y2="47.08"/><line class="cls-4" x1="83.09" y1="59.39" x2="88.67" y2="64.97"/><polyline class="cls-4" points="67.78 36.59 67.78 10.39 76.66 10.39"/><polyline class="cls-4" points="67.38 21.59 78.35 21.59 86.46 13.47"/><polyline class="cls-4" points="80.73 27.85 87.7 34.82 108.61 34.82"/><polyline class="cls-4" points="102.76 40.24 98.71 44.29 87.21 44.29 78.55 35.62 71.58 42.59 71.58 53.52 100.19 53.52 104.19 49.46"/><line class="cls-4" x1="92.97" y1="23.19" x2="104.26" y2="23.19"/><circle class="cls-6" cx="106.36" cy="23.14" r="2.16"/><circle class="cls-6" cx="78.47" cy="10.38" r="2.16"/><circle class="cls-6" cx="89.74" cy="66.15" r="2.16"/><circle class="cls-6" cx="95.82" cy="87.92" r="2.16"/><circle class="cls-6" cx="120.41" cy="70.86" r="2.16"/><circle class="cls-6" cx="118.17" cy="45.68" r="2.16"/><circle class="cls-6" cx="105.51" cy="47.84" r="2.16"/><circle class="cls-6" cx="125.97" cy="59.28" r="2.16"/><polyline class="cls-4" points="90.33 104.06 74.62 104.06 74.62 95.68 74.62 90.08 80.49 84.21"/></svg>
